<?xml version="1.0" encoding="utf-8"?>
<!-- Generator: Adobe Illustrator 15.0.2, SVG Export Plug-In  -->
<!DOCTYPE svg PUBLIC "-//W3C//DTD SVG 1.1//EN" "http://www.w3.org/Graphics/SVG/1.1/DTD/svg11.dtd" [
	<!ENTITY ns_flows "http://ns.adobe.com/Flows/1.0/">
]>
<svg version="1.1"
	 xmlns="http://www.w3.org/2000/svg" xmlns:xlink="http://www.w3.org/1999/xlink" xmlns:a="http://ns.adobe.com/AdobeSVGViewerExtensions/3.0/"
	 x="0px" y="0px" width="54px" height="66px" viewBox="-2.932 -3.333 54 66"
	 overflow="visible" enable-background="new -2.932 -3.333 54 66" xml:space="preserve">
<defs>
</defs>
<polygon display="none" fill="#FFFFFF" points="35.568,28.797 35.568,2 14.068,2 14.068,28.797 2,28.797 24.818,59.3 47.637,28.797 
	"/>
<polygon display="none" fill="#353535" points="33.568,26.797 33.568,0 12.068,0 12.068,26.797 0,26.797 22.818,57.3 45.637,26.797 
	"/>
<polygon fill="#FFFFFF" points="35.568,30.504 35.568,57.301 14.068,57.301 14.068,30.504 2,30.504 24.818,0 47.637,30.504 "/>
<polygon fill="#353535" points="33.568,32.504 33.568,59.301 12.068,59.301 12.068,32.504 0,32.504 22.818,2 45.637,32.504 "/>
<polygon display="none" fill="#515251" points="35.568,28.797 35.568,2 14.068,2 14.068,28.797 2,28.797 24.818,59.3 47.637,28.797 
	"/>
<polygon display="none" fill="#FFFFFF" points="33.568,26.797 33.568,0 12.068,0 12.068,26.797 0,26.797 22.818,57.3 45.637,26.797 
	"/>
</svg>
