<?xml version="1.0" encoding="utf-8"?>
<!-- Generator: Adobe Illustrator 15.0.2, SVG Export Plug-In . SVG Version: 6.00 Build 0)  -->
<!DOCTYPE svg PUBLIC "-//W3C//DTD SVG 1.1//EN" "http://www.w3.org/Graphics/SVG/1.1/DTD/svg11.dtd">
<svg version="1.1" id="Layer_1" xmlns="http://www.w3.org/2000/svg" xmlns:xlink="http://www.w3.org/1999/xlink" x="0px" y="0px"
	 width="21px" height="20px" viewBox="0 0 21 20" enable-background="new 0 0 21 20" xml:space="preserve">
<circle fill="none" cx="9.943" cy="9.943" r="9.443"/>
<path fill="#FFFFFF" d="M9.944,19.886C4.461,19.886,0,15.426,0,9.943S4.461,0,9.944,0c5.482,0,9.943,4.46,9.943,9.943
	S15.426,19.886,9.944,19.886z M9.944,1.001c-4.931,0-8.943,4.011-8.943,8.942c0,4.931,4.012,8.942,8.943,8.942
	c4.931,0,8.943-4.012,8.943-8.942C18.887,5.013,14.875,1.001,9.944,1.001z"/>
<path fill="#FFFFFF" d="M10.871,12.193c0,0.998,0.057,1.127,0.529,1.171l0.271,0.028c0.114,0.086,0.114,0.414-0.014,0.5
	c-0.5-0.028-1.057-0.043-1.713-0.043c-0.643,0-1.242,0.015-1.713,0.043c-0.128-0.086-0.128-0.414-0.013-0.5l0.27-0.028
	c0.471-0.044,0.529-0.173,0.529-1.171v-2.155c0-0.57,0-0.741-0.272-0.913L8.544,8.996c-0.1-0.086-0.1-0.343,0-0.427
	c0.671-0.186,1.685-0.572,2.112-0.829c0.114,0,0.2,0.043,0.257,0.129c-0.03,0.427-0.043,1.055-0.043,1.698L10.871,12.193
	L10.871,12.193z M10.984,5.743c0,0.684-0.527,1.041-1.07,1.041c-0.628,0-0.999-0.428-0.999-1.013c0-0.628,0.5-1.042,1.07-1.042
	C10.586,4.729,10.984,5.171,10.984,5.743z"/>
</svg>
