<?xml version="1.0" encoding="utf-8"?>
<!-- Generator: Adobe Illustrator 15.0.2, SVG Export Plug-In . SVG Version: 6.00 Build 0)  -->
<!DOCTYPE svg PUBLIC "-//W3C//DTD SVG 1.1//EN" "http://www.w3.org/Graphics/SVG/1.1/DTD/svg11.dtd">
<svg version="1.1" id="Layer_2" xmlns="http://www.w3.org/2000/svg" xmlns:xlink="http://www.w3.org/1999/xlink" x="0px" y="0px"
	 width="50px" height="42.01px" viewBox="0 0 50 42.01" enable-background="new 0 0 50 42.01" xml:space="preserve">
<path fill="#FFFFFF" d="M43.322,1.297H7.298c-2.099,0-3.8,1.701-3.8,3.8v21.342c0,2.098,1.701,3.799,3.8,3.799h36.024
	c2.098,0,3.799-1.701,3.799-3.799V5.097C47.121,2.999,45.42,1.297,43.322,1.297z M44.412,27.576H6.209V3.96h38.203V27.576z"/>
<polygon fill="#FFFFFF" points="31.678,37.258 18.943,37.258 20.694,30.818 29.926,30.818 "/>
<path fill="#FFFFFF" d="M37.713,39.078c0,0.512-0.414,0.926-0.926,0.926H13.833c-0.512,0-0.927-0.414-0.927-0.926l0,0
	c0-0.512,0.415-0.926,0.927-0.926h22.954C37.299,38.152,37.713,38.566,37.713,39.078L37.713,39.078z"/>
</svg>
