<?xml version="1.0" encoding="utf-8"?>
<!-- Generator: Adobe Illustrator 15.0.2, SVG Export Plug-In . SVG Version: 6.00 Build 0)  -->
<!DOCTYPE svg PUBLIC "-//W3C//DTD SVG 1.1//EN" "http://www.w3.org/Graphics/SVG/1.1/DTD/svg11.dtd">
<svg version="1.1" id="Layer_1" xmlns="http://www.w3.org/2000/svg" xmlns:xlink="http://www.w3.org/1999/xlink" x="0px" y="0px"
	 width="15.99px" height="15.99px" viewBox="0 0 15.99 15.99" enable-background="new 0 0 15.99 15.99" xml:space="preserve">
<g>
	<linearGradient id="SVGID_1_" gradientUnits="userSpaceOnUse" x1="5.6729" y1="2.5298" x2="11.2762" y2="15.1151">
		<stop  offset="0" style="stop-color:#FFF200"/>
		<stop  offset="0.2142" style="stop-color:#FEE700"/>
		<stop  offset="0.5263" style="stop-color:#EAD320"/>
		<stop  offset="0.8967" style="stop-color:#CEB636"/>
		<stop  offset="1" style="stop-color:#C5AD3A"/>
	</linearGradient>
	<polygon fill="url(#SVGID_1_)" points="7.951,12.44 3.67,14.69 4.488,9.924 1.025,6.548 5.811,5.853 7.951,1.516 10.091,5.853 
		14.878,6.548 11.415,9.924 12.231,14.69 	"/>
	<path d="M7.951,2.646l1.575,3.192L9.759,6.31l0.521,0.076l3.524,0.512l-2.55,2.485l-0.376,0.366l0.089,0.519l0.601,3.509
		L8.417,12.12l-0.465-0.245L7.486,12.12l-3.151,1.656l0.602-3.509L5.025,9.75L4.649,9.383l-2.55-2.486l3.523-0.511L6.143,6.31
		l0.233-0.472L7.951,2.646 M7.951,0.386l-2.472,5.01L-0.05,6.199l4,3.9l-0.944,5.506l4.945-2.6l4.944,2.6l-0.943-5.506l4-3.9
		l-5.529-0.803L7.951,0.386L7.951,0.386z"/>
</g>
</svg>
