<?xml version="1.0" encoding="utf-8"?>
<!-- Generator: Adobe Illustrator 18.1.0, SVG Export Plug-In . SVG Version: 6.00 Build 0)  -->
<svg version="1.1" id="Layer_1" xmlns="http://www.w3.org/2000/svg" xmlns:xlink="http://www.w3.org/1999/xlink" x="0px" y="0px"
	 viewBox="-0.1 180 612.2 612" enable-background="new -0.1 180 612.2 612" xml:space="preserve">
<path fill="#FFFFFF" d="M600.8,417.3l-226-226c-8.6-8.6-20.2-12-31.6-11.1h-74.6c-11.4-1-22.9,2.4-31.6,11.1l-45.9,45.9v-57H76.5
	v171.6l-65.4,65.4c-8.6,8.6-12,20.2-11,31.6v75.5c0,21.2,17.1,38.2,38.2,38.2h38.2v191.2c0,21.2,17.1,38.2,38.2,38.2h382.4
	c21.2,0,38.2-17.1,38.2-38.2V562.5h38.2c21.2,0,38.2-17.1,38.2-38.2v-75.5C612.8,437.5,609.4,425.9,600.8,417.3z M535.5,486.1H459
	v229.5h-76.5V562.5h-153v153H153V486H76.5v-21.2l208.2-208.2h42.4l208.3,208.2V486.1z"/>
</svg>
