<?xml version="1.0" encoding="utf-8"?>
<!-- Generator: Adobe Illustrator 18.1.0, SVG Export Plug-In . SVG Version: 6.00 Build 0)  -->
<svg version="1.1" id="Layer_1" xmlns="http://www.w3.org/2000/svg" xmlns:xlink="http://www.w3.org/1999/xlink" x="0px" y="0px"
	 viewBox="-0.1 612.4 612.2 179.6" enable-background="new -0.1 612.4 612.2 179.6" xml:space="preserve">
<g id="one_green_2">
	<g>
		<path fill="#444444" d="M273.7,715.4c0.7,1.7,1.4,3.5,2.1,5.2c0.7-1.7,1.4-3.7,2.3-5.4c0.7-1.7,1.6-3.5,2.4-5l32.2-60.4
			c0.3-0.7,0.9-1.4,1.2-1.7c0.3-0.5,0.9-0.7,1.4-1c0.5-0.2,1-0.3,1.7-0.3s1.4,0,2.3,0h15.3v109h-17.9v-70.3c0-1.2,0-2.8,0.2-4.4
			c0-1.6,0.2-3.1,0.3-4.7L284.3,738c-0.7,1.4-1.7,2.4-3,3.3c-1.2,0.7-2.6,1.2-4.2,1.2h-2.8c-1.6,0-3-0.3-4.2-1.2
			c-1.2-0.7-2.3-1.9-3-3.3l-33.4-62c0.2,1.7,0.3,3.3,0.3,4.9c0,1.6,0.2,3.1,0.2,4.4v70.3h-17.8v-109h15.3c0.9,0,1.7,0,2.3,0
			c0.7,0,1.2,0.2,1.7,0.3c0.5,0.2,1,0.5,1.4,1c0.5,0.5,0.9,1,1.2,1.7l32.5,60.4C272.1,712.1,273,713.7,273.7,715.4z"/>
		<path fill="#444444" d="M353.3,702.4h39v15.5h-39V702.4z"/>
		<path fill="#444444" d="M431.8,717.3v38.3h-20.2v-109h35.5c7.3,0,13.6,0.9,19,2.6s9.7,4.2,13.2,7.1c3.5,3.1,6.1,6.8,7.7,11
			c1.7,4.4,2.4,8.9,2.4,13.9c0,5.2-0.9,10.1-2.6,14.4c-1.7,4.4-4.4,8.2-7.8,11.3c-3.5,3.1-7.8,5.6-13.2,7.3
			c-5.4,1.7-11.5,2.6-18.5,2.6L431.8,717.3L431.8,717.3z M431.8,701.5h15.1c3.7,0,7-0.5,9.7-1.4s5-2.3,6.8-4c1.7-1.7,3.1-3.8,4-6.3
			c0.9-2.4,1.4-5.2,1.4-8.4c0-3-0.5-5.6-1.4-7.8c-0.9-2.4-2.3-4.4-4-6.1c-1.7-1.7-4.2-3-6.8-3.8c-2.8-0.9-5.9-1.4-9.7-1.4h-15.1
			V701.5z"/>
		<path fill="#444444" d="M526.4,655.9c0,1.6-0.3,3.1-1,4.5c-0.7,1.4-1.6,2.6-2.6,3.7c-1,1-2.3,1.9-3.8,2.4c-1.4,0.7-3,0.9-4.7,0.9
			c-1.6,0-3.1-0.3-4.5-0.9c-1.4-0.7-2.6-1.4-3.7-2.4c-1-1-1.9-2.3-2.4-3.7c-0.7-1.4-0.9-3-0.9-4.5c0-1.7,0.3-3.1,0.9-4.7
			c0.7-1.4,1.4-2.8,2.4-3.8c1-1,2.3-1.9,3.7-2.4c1.4-0.7,3-0.9,4.5-0.9c1.7,0,3.1,0.3,4.7,0.9c1.4,0.7,2.8,1.4,3.8,2.4
			c1,1,1.9,2.3,2.6,3.8C526.1,652.6,526.4,654.1,526.4,655.9z M523.7,678.3v77.3H505v-77.3H523.7z"/>
		<path fill="#444444" d="M544.7,755.6v-77.3H556c2.4,0,4,1,4.7,3.3l1.2,6.1c1.6-1.6,3.1-3.1,4.9-4.4c1.7-1.4,3.5-2.4,5.6-3.3
			c1.9-0.9,4-1.7,6.3-2.3c2.3-0.5,4.7-0.7,7.3-0.7c4.2,0,8,0.7,11.1,2.1c3.3,1.4,5.9,3.5,8.2,6.1c2.3,2.6,3.8,5.7,5,9.2
			c1,3.7,1.7,7.5,1.7,11.8v49.1h-18.6v-49.1c0-4.7-1-8.4-3.3-11c-2.3-2.6-5.4-3.8-9.7-3.8c-3.1,0-6.3,0.7-9.1,2.3
			c-2.8,1.4-5.4,3.5-8,5.9v55.9L544.7,755.6L544.7,755.6z"/>
	</g>
	<g id="icon_3_">
		<path opacity="0.6" fill="#444444" enable-background="new    " d="M89.7,612.4c-49.6,0-89.8,40.2-89.8,89.8
			c0,49.6,40.2,89.8,89.8,89.8s89.8-40.2,89.8-89.8C179.5,652.6,139.5,612.4,89.7,612.4z M89.7,777c-41.4,0-74.8-33.4-74.8-74.8
			c0-41.4,33.4-74.8,74.8-74.8s74.8,33.4,74.8,74.8C164.6,743.6,131.2,777,89.7,777z"/>
		<g>
			<g>
				<g>
					<path fill="#444444" d="M123.5,645.8H56.3c-2.4,0-4.5,1.9-4.5,4.5v104.1c0,2.4,1.9,4.5,4.5,4.5h67.2c2.4,0,4.5-1.9,4.5-4.5
						V650.3C127.8,647.7,125.9,645.8,123.5,645.8z M78.6,739.1c0,0.7-0.7,1.4-1.4,1.4H65.4c-0.7,0-1.4-0.7-1.4-1.4v-11.8
						c0-0.7,0.7-1.4,1.4-1.4h11.8c0.7,0,1.4,0.7,1.4,1.4V739.1z M78.6,720.6c0,0.7-0.7,1.4-1.4,1.4H65.4c-0.7,0-1.4-0.7-1.4-1.4
						v-11.8c0-0.7,0.7-1.4,1.4-1.4h11.8c0.7,0,1.4,0.7,1.4,1.4V720.6z M78.6,702.2c0,0.7-0.7,1.4-1.4,1.4H65.4
						c-0.7,0-1.4-0.7-1.4-1.4v-11.8c0-0.7,0.7-1.4,1.4-1.4h11.8c0.7,0,1.4,0.5,1.4,1.4V702.2z M97,739.1c0,0.7-0.7,1.4-1.4,1.4H83.8
						c-0.7,0-1.4-0.7-1.4-1.4v-11.8c0-0.7,0.7-1.4,1.4-1.4h11.8c0.7,0,1.4,0.7,1.4,1.4V739.1z M97,720.6c0,0.7-0.7,1.4-1.4,1.4H83.8
						c-0.7,0-1.4-0.7-1.4-1.4v-11.8c0-0.7,0.7-1.4,1.4-1.4h11.8c0.7,0,1.4,0.7,1.4,1.4V720.6z M97,702.2c0,0.7-0.7,1.4-1.4,1.4H83.8
						c-0.7,0-1.4-0.7-1.4-1.4v-11.8c0-0.7,0.7-1.4,1.4-1.4h11.8c0.7,0,1.4,0.5,1.4,1.4V702.2z M115.5,739.1c0,0.7-0.7,1.4-1.4,1.4
						h-11.8c-0.7,0-1.4-0.7-1.4-1.4v-11.8c0-0.7,0.7-1.4,1.4-1.4h11.8c0.7,0,1.4,0.7,1.4,1.4V739.1z M115.5,720.6
						c0,0.7-0.7,1.4-1.4,1.4h-11.8c-0.7,0-1.4-0.7-1.4-1.4v-11.8c0-0.7,0.7-1.4,1.4-1.4h11.8c0.7,0,1.4,0.7,1.4,1.4V720.6z
						 M115.5,702.2c0,0.7-0.7,1.4-1.4,1.4h-11.8c-0.7,0-1.4-0.7-1.4-1.4v-11.8c0-0.7,0.7-1.4,1.4-1.4h11.8c0.7,0,1.4,0.5,1.4,1.4
						V702.2z M115.5,676.9c0,0.7-0.7,1.4-1.4,1.4H65.4c-0.7,0-1.4-0.7-1.4-1.4v-15.8c0-0.7,0.7-1.4,1.4-1.4h48.7
						c0.7,0,1.4,0.7,1.4,1.4V676.9z"/>
				</g>
			</g>
		</g>
	</g>
</g>
</svg>
