<?xml version="1.0" encoding="utf-8"?>
<!-- Generator: Adobe Illustrator 18.1.0, SVG Export Plug-In . SVG Version: 6.00 Build 0)  -->
<svg version="1.1" id="Layer_1" xmlns="http://www.w3.org/2000/svg" xmlns:xlink="http://www.w3.org/1999/xlink" x="0px" y="0px"
	 viewBox="0 0 459.6 90.2" enable-background="new 0 0 459.6 90.2" xml:space="preserve">
<g>
	<path fill="#454545" d="M61.7,65.3c0.8,0,1.6,0.3,2.2,1l6.1,6.6c-3.4,4.2-7.5,7.3-12.4,9.6c-4.9,2.2-10.8,3.3-17.6,3.3
		c-6.1,0-11.7-1-16.6-3.1c-4.9-2.1-9.1-5-12.6-8.8c-3.5-3.7-6.1-8.2-8-13.4C0.9,55.3,0,49.6,0,43.5c0-6.2,1-11.9,3.1-17.1
		c2.1-5.2,5-9.6,8.7-13.4c3.7-3.7,8.2-6.6,13.4-8.7c5.2-2.1,11-3.1,17.2-3.1c6.1,0,11.5,1,16.1,2.9c4.6,2,8.5,4.6,11.8,7.8l-5.1,7.1
		c-0.3,0.5-0.7,0.9-1.2,1.2c-0.5,0.3-1.1,0.5-2,0.5c-0.9,0-1.8-0.3-2.7-1c-0.9-0.7-2.1-1.4-3.5-2.2c-1.4-0.8-3.2-1.5-5.3-2.2
		c-2.2-0.7-4.9-1-8.2-1c-3.9,0-7.5,0.7-10.7,2c-3.3,1.4-6.1,3.3-8.4,5.8c-2.3,2.5-4.2,5.6-5.5,9.2c-1.3,3.6-2,7.7-2,12.2
		c0,4.7,0.7,8.8,2,12.4c1.3,3.6,3.1,6.7,5.3,9.2c2.3,2.5,4.9,4.4,8,5.7c3.1,1.3,6.3,2,9.8,2c2.1,0,4-0.1,5.7-0.3
		c1.7-0.2,3.3-0.6,4.7-1.1c1.4-0.5,2.8-1.1,4.1-1.9c1.3-0.8,2.5-1.7,3.8-2.9c0.4-0.3,0.8-0.6,1.2-0.8C60.7,65.4,61.2,65.3,61.7,65.3
		z"/>
	<path fill="#454545" d="M105,25.2c3.7,0,7.1,0.6,10.2,1.8c3.1,1.2,5.8,2.9,8,5.2c2.2,2.3,4,5.1,5.3,8.4c1.3,3.3,1.9,7.1,1.9,11.3
		c0,1.1,0,2-0.1,2.7c-0.1,0.7-0.3,1.3-0.5,1.7c-0.2,0.4-0.6,0.7-1,0.9c-0.4,0.2-1,0.3-1.6,0.3H90.8c0.4,6,2,10.4,4.9,13.3
		c2.8,2.8,6.6,4.2,11.2,4.2c2.3,0,4.3-0.3,5.9-0.8c1.7-0.5,3.1-1.1,4.3-1.8c1.2-0.6,2.3-1.2,3.3-1.8c0.9-0.5,1.8-0.8,2.7-0.8
		c0.6,0,1.1,0.1,1.5,0.3c0.4,0.2,0.8,0.6,1.1,1l4.1,5.1c-1.6,1.8-3.3,3.4-5.3,4.6c-1.9,1.2-4,2.2-6.1,3c-2.1,0.7-4.3,1.3-6.5,1.6
		c-2.2,0.3-4.3,0.5-6.4,0.5c-4.1,0-7.9-0.7-11.4-2c-3.5-1.4-6.6-3.4-9.2-6c-2.6-2.7-4.6-5.9-6.1-9.8c-1.5-3.9-2.2-8.4-2.2-13.6
		c0-4,0.6-7.8,1.9-11.3c1.3-3.5,3.2-6.6,5.6-9.2c2.4-2.6,5.4-4.7,8.9-6.2C96.6,26,100.6,25.2,105,25.2z M105.3,35.4
		c-4.1,0-7.3,1.2-9.7,3.5c-2.3,2.3-3.8,5.6-4.5,9.9h26.5c0-1.8-0.2-3.6-0.7-5.2c-0.5-1.6-1.3-3-2.3-4.3c-1-1.2-2.3-2.2-3.9-2.9
		C109.2,35.7,107.4,35.4,105.3,35.4z"/>
	<path fill="#454545" d="M141.9,84.8V26.1h8.3c1.4,0,2.5,0.3,3,0.8c0.6,0.5,1,1.5,1.1,2.7l0.9,7.1c2.1-3.6,4.6-6.5,7.4-8.6
		c2.8-2.1,6-3.1,9.5-3.1c2.9,0,5.3,0.7,7.2,2l-1.8,10.6c-0.1,0.7-0.4,1.2-0.7,1.5c-0.4,0.3-0.9,0.4-1.5,0.4c-0.6,0-1.4-0.1-2.3-0.4
		c-1-0.3-2.3-0.4-3.9-0.4c-2.9,0-5.5,0.8-7.6,2.4c-2.1,1.6-3.9,4-5.3,7.1v36.6H141.9z"/>
	<path fill="#454545" d="M207.9,85.7c-5.1,0-9-1.4-11.7-4.3c-2.7-2.9-4.1-6.9-4.1-11.9V36.7h-6c-0.8,0-1.4-0.2-2-0.7
		c-0.6-0.5-0.8-1.2-0.8-2.2v-5.6l9.4-1.5l3-16c0.2-0.8,0.5-1.4,1.1-1.8c0.6-0.4,1.2-0.6,2.1-0.6h7.3v18.5h15.4v10.1h-15.4v31.8
		c0,1.8,0.5,3.3,1.4,4.3c0.9,1,2.1,1.5,3.7,1.5c0.9,0,1.6-0.1,2.2-0.3c0.6-0.2,1.1-0.4,1.5-0.7c0.4-0.2,0.8-0.4,1.2-0.7
		c0.3-0.2,0.7-0.3,1-0.3c0.4,0,0.8,0.1,1,0.3c0.3,0.2,0.6,0.5,0.9,0.9l4.2,6.9c-2.1,1.7-4.4,3-7.1,3.9
		C213.5,85.3,210.7,85.7,207.9,85.7z"/>
	<path fill="#454545" d="M250,9c0,1.2-0.2,2.4-0.7,3.4c-0.5,1.1-1.2,2-2,2.8c-0.8,0.8-1.8,1.4-2.9,1.9c-1.1,0.5-2.3,0.7-3.5,0.7
		c-1.2,0-2.4-0.2-3.5-0.7c-1.1-0.5-2-1.1-2.8-1.9c-0.8-0.8-1.4-1.7-1.9-2.8c-0.5-1.1-0.7-2.2-0.7-3.4c0-1.3,0.2-2.4,0.7-3.5
		c0.5-1.1,1.1-2.1,1.9-2.9c0.8-0.8,1.7-1.4,2.8-1.9c1.1-0.5,2.2-0.7,3.5-0.7c1.3,0,2.4,0.2,3.5,0.7c1.1,0.5,2.1,1.1,2.9,1.9
		c0.8,0.8,1.5,1.8,2,2.9C249.8,6.6,250,7.8,250,9z M247.9,26.1v58.7h-14.1V26.1H247.9z"/>
</g>
<g>
	<g>
		<path fill="#454545" d="M313.7,51.7l20-49.6h-12.4c-1.3,0-2.4,0.4-3.3,1.1c-0.9,0.7-1.5,1.5-1.8,2.4l-19.4,50.5
			c-1.3,3.4-2.4,7.2-3.3,11.6c-0.5-2.2-1.1-4.2-1.7-6.2c-0.6-2-1.2-3.8-1.9-5.4L270.6,5.6c-0.4-1-1-1.9-1.9-2.5
			c-0.8-0.6-1.9-1-3.3-1H253l33.4,82.7h13.9l6.2-15.4c-0.1-0.7-0.1-1.4-0.1-2.1C306.5,60.9,309.3,55.2,313.7,51.7z"/>
		<path fill="#454545" d="M439.4,53.9l19.3-27.8h-13c-0.7,0-1.3,0.2-1.8,0.5c-0.5,0.3-1,0.9-1.4,1.6l-9.9,15.4
			c-0.4,0.6-0.8,1.3-1.1,1.9c-0.3,0.6-0.5,1.3-0.7,1.9L418.6,28c-0.4-0.6-0.8-1.1-1.3-1.4c-0.5-0.3-1.3-0.4-2.3-0.4h-13.6l19.3,28.4
			l-7,10.6c-0.2,8.9-5.1,16.4-12.1,19.7h11.7c0.9,0,1.7-0.3,2.3-0.8c0.6-0.6,1.1-1.2,1.5-1.8l11-17c0.6-0.9,1.1-2.1,1.4-3.4
			l12.5,20.4c0.4,0.7,0.9,1.3,1.6,1.8c0.6,0.5,1.5,0.8,2.5,0.8h13.6L439.4,53.9z"/>
	</g>
</g>
<path fill="#454545" d="M397.5,46.8l-2-0.5l0.1-2.5c0-12.7-9.2-23-20.4-23c-5.4,0-10.4,2.3-14.3,6.6l-1.3,1.4l-1.7-0.8
	c-3-1.5-6.1-2.2-9.4-2.2c-12.1,0-22.1,10.2-23.5,23.7l-0.2,2.1l-2.1,0.2c-7.1,0.6-12.7,7.5-12.7,15.6c0,8.7,6.2,15.7,13.8,15.7
	c2.4,0,4.7-0.7,6.8-2l1.7-1.1l1.5,1.5c5.4,5.5,15.5,8.9,26.4,8.9c10.3,0,19.7-3,25.4-7.9l1.2-1.1l1.5,0.6c1.8,0.8,3.7,1.2,5.6,1.2
	c8.9,0,16.2-8.2,16.2-18.3C410.1,56.2,404.8,48.7,397.5,46.8z M364.8,59.6v11.5c0,3.2-2.1,5.9-4.8,5.9c-2.6,0-4.8-2.6-4.8-5.9V59.6
	c-3.6-1.8-6-5.4-6-9.7c0-6,4.8-10.8,10.8-10.8c6,0,10.8,4.8,10.8,10.8C370.9,54.2,368.4,57.8,364.8,59.6z"/>
<rect x="0.4" y="107.9" fill="none" width="460.8" height="84.6"/>
<text transform="matrix(1 0 0 1 16.1729 137.7674)" display="none" fill="#A7A9AC" font-family="'Lato-Regular'" font-size="42">True Security is Beautiful </text>
</svg>
