<?xml version="1.0" encoding="utf-8"?>
<!-- Generator: Adobe Illustrator 15.0.2, SVG Export Plug-In  -->
<!DOCTYPE svg PUBLIC "-//W3C//DTD SVG 1.1//EN" "http://www.w3.org/Graphics/SVG/1.1/DTD/svg11.dtd" [
	<!ENTITY ns_flows "http://ns.adobe.com/Flows/1.0/">
]>
<svg version="1.1"
	 xmlns="http://www.w3.org/2000/svg" xmlns:xlink="http://www.w3.org/1999/xlink" xmlns:a="http://ns.adobe.com/AdobeSVGViewerExtensions/3.0/"
	 x="0px" y="0px" width="52px" height="47px" viewBox="-1 -0.814 52 47"
	 overflow="visible" enable-background="new -1 -0.814 52 47" xml:space="preserve">
<defs>
</defs>
<path fill="#067DC0" d="M46.166,0H4.405C1.972,0,0,1.972,0,4.405v24.74c0,2.434,1.972,4.405,4.405,4.405h41.761
	c2.433,0,4.405-1.972,4.405-4.405V4.405C50.571,1.972,48.599,0,46.166,0z M47.429,30.464H3.142V3.086h44.287V30.464z"/>
<polygon fill="#067DC0" points="32.667,41.688 17.904,41.688 19.934,34.223 30.637,34.223 "/>
<path fill="#067DC0" d="M39.665,43.798c0,0.594-0.481,1.074-1.074,1.074H11.981c-0.593,0-1.074-0.48-1.074-1.074l0,0
	c0-0.593,0.481-1.074,1.074-1.074H38.59C39.184,42.725,39.665,43.206,39.665,43.798L39.665,43.798z"/>
</svg>
